<svg xmlns="http://www.w3.org/2000/svg" width="1200" height="680"><rect width="1200" height="680" fill="#f7f4eb"/><text x="600" y="55" text-anchor="middle" font-family="Arial" font-size="32" font-weight="700" fill="#06182f">Trois états défensifs de /biens</text><g font-family="Arial"><g transform="translate(35 100)"><rect width="350" height="500" rx="22" fill="white" stroke="#d4a64a"/><text x="25" y="55" font-size="24" font-weight="700" fill="#06182f">Résultats</text><rect x="25" y="85" width="300" height="80" rx="12" fill="#e2e8f0"/><rect x="25" y="200" width="140" height="240" fill="#a7c9bb"/><rect x="185" y="200" width="140" height="240" fill="#a7c9bb"/></g><g transform="translate(425 100)"><rect width="350" height="500" rx="22" fill="white" stroke="#d4a64a"/><text x="25" y="55" font-size="24" font-weight="700" fill="#06182f">Paramètre ignoré</text><rect x="25" y="90" width="300" height="100" rx="12" fill="#fef3c7"/><text x="45" y="145" fill="#92400e">ville invalide</text><rect x="25" y="225" width="300" height="180" fill="#a7c9bb"/></g><g transform="translate(815 100)"><rect width="350" height="500" rx="22" fill="white" stroke="#d4a64a"/><text x="25" y="55" font-size="24" font-weight="700" fill="#06182f">Aucun résultat</text><rect x="25" y="110" width="300" height="250" rx="14" fill="#f8fafc"/><text x="175" y="220" text-anchor="middle" fill="#475569">Modifiez la ville</text><text x="175" y="260" text-anchor="middle" fill="#07583f">Réinitialiser</text></g></g></svg>
